<svg width="183" height="24" viewBox="0 0 183 24" fill="none" xmlns="http://www.w3.org/2000/svg">
<path d="M23.8387 -0.00292969H25.4691C27.7633 0.128023 30.2089 0.568499 32.0372 2.10421C33.4929 3.3185 34.1102 5.37802 33.7491 7.24707C33.4813 8.62802 32.8524 9.91374 32.177 11.1399C30.8144 13.5566 29.1258 15.7709 27.5304 18.0447C27.2392 18.4137 27.0179 18.878 27.0412 19.3661C27.0762 19.7471 27.3673 20.0566 27.705 20.1994C28.3572 20.4733 29.0909 20.4137 29.778 20.378C31.9674 20.1399 34.0752 19.4614 36.1598 18.7828C36.3112 18.6875 36.3694 18.8542 36.4276 18.9733C34.215 20.4733 31.8276 21.7352 29.3238 22.6637C27.938 23.1399 26.4706 23.5923 24.9916 23.4137C24.223 23.3304 23.4427 22.8661 23.1982 22.0685C22.8954 21.0447 23.0118 19.9018 23.4427 18.9256C24.1065 17.4018 25.143 16.1042 26.1096 14.7828C27.7283 12.6161 29.3937 10.4614 30.663 8.04469C31.0939 7.19945 31.5365 6.15183 31.1172 5.21136C30.7329 4.34231 29.8711 3.8304 29.0559 3.43755C27.6119 2.78278 26.063 2.37802 24.5374 1.93755C24.3045 2.09231 24.0716 2.24707 23.8503 2.40183C24.3744 2.8185 24.9101 3.23517 25.4341 3.65183C23.4311 4.02088 21.428 4.43755 19.4483 4.94945C16.4437 5.72326 13.509 6.74707 10.5976 7.8185C10.8771 8.40183 11.1682 8.98517 11.436 9.5685C10.7722 10.3185 10.1201 11.0685 9.46793 11.8066C11.0401 12.2947 12.752 12.3661 14.3591 11.9971C15.7333 11.6756 17.0376 11.009 18.0857 10.0447C17.7946 9.67564 17.4336 9.37802 17.0493 9.13993C18.3303 9.17564 19.4948 10.3066 19.4948 11.6399C19.2503 11.6399 18.9941 11.6399 18.7495 11.6399C18.6913 11.3542 18.6214 11.0685 18.5166 10.7947C17.0609 12.1399 15.1859 12.9852 13.2411 13.1995C11.5292 13.4018 9.78236 13.1637 8.16361 12.5447C8.28007 13.5566 8.38488 14.5804 8.48969 15.5923C7.56968 15.9614 6.71955 16.4852 5.96258 17.128C5.35701 17.6637 4.75143 18.2828 4.53016 19.0923C4.29725 19.8066 4.66991 20.6161 5.27549 20.9971C6.00916 21.4614 6.87094 21.6875 7.73272 21.8066C8.85071 21.9614 9.99198 21.9494 11.1216 21.8661C13.3343 21.6994 15.5353 21.2709 17.6898 20.7352C17.8994 20.6518 18.0042 21.009 17.7829 21.0685C16.0594 21.9733 14.2659 22.7352 12.3793 23.2233C10.6208 23.6995 8.80412 23.9375 6.97575 23.9971C5.12409 23.9375 3.14433 23.5685 1.67698 22.3304C0.582283 21.4256 0 19.9852 0 18.5566V18.4852C0.034937 16.9733 0.535701 15.509 1.25773 14.2114C2.20103 12.3661 3.3656 10.6399 4.73979 9.10421C7.1155 6.41374 10.0968 4.34231 13.2993 2.84231C16.63 1.30659 20.1819 0.199451 23.8387 -0.00292969ZM52.4171 0.74707C55.0607 0.74707 57.6926 0.74707 60.3362 0.735165C63.8182 8.21136 67.3003 15.6875 70.7707 23.1637C68.1388 23.1637 65.4952 23.1637 62.8633 23.1637C62.3276 21.8185 61.7919 20.4614 61.2446 19.1161C57.6111 19.1161 53.9777 19.1161 50.3442 19.1161C49.7736 20.4614 49.1913 21.8185 48.609 23.1637C46.2333 23.1637 43.8576 23.1637 41.4819 23.1637C43.1588 19.7233 44.8475 16.2947 46.5128 12.8542C48.4809 8.80659 50.4607 4.78278 52.4171 0.74707ZM55.9924 6.10421C54.8045 8.80659 53.6166 11.509 52.4288 14.2114C54.7463 14.2114 57.0521 14.2114 59.358 14.2114C58.24 11.509 57.1103 8.80659 55.9924 6.10421ZM72.7621 0.74707C75.068 0.74707 77.3738 0.74707 79.668 0.74707C79.668 8.21136 79.668 15.6875 79.668 23.1637C77.3738 23.1637 75.068 23.1637 72.7621 23.1637C72.7621 15.6875 72.7621 8.21136 72.7621 0.74707ZM84.0002 0.74707C86.306 0.74707 88.6119 0.74707 90.9177 0.74707C90.9177 2.23517 90.9177 3.73517 90.9177 5.22326C88.6119 5.22326 86.306 5.22326 84.0002 5.22326C84.0002 3.73517 84.0002 2.23517 84.0002 0.74707ZM95.2732 0.77088C97.5324 0.758975 99.7917 0.758975 102.051 0.77088C102.051 3.80659 102.051 6.84231 102.051 9.87802C103.355 8.42564 105.137 7.38993 107.082 7.18755C108.84 7.02088 110.704 7.3185 112.206 8.3185C112.893 8.75898 113.51 9.34231 114.023 9.98517C115.082 11.4971 115.7 13.3423 115.746 15.1994C115.793 16.7471 115.583 18.3423 114.85 19.7114C114.372 20.6161 113.697 21.4137 112.905 22.0328C111.554 23.009 109.9 23.5923 108.235 23.5447C106.674 23.5328 105.09 23.0923 103.809 22.1637C103.111 21.6637 102.517 21.0447 101.981 20.3661C101.981 21.3066 101.981 22.2352 101.981 23.1637C99.7451 23.1637 97.5092 23.1637 95.2732 23.1637C95.2615 15.6995 95.2615 8.23517 95.2732 0.77088ZM104.555 10.9018C103.623 11.1161 102.82 11.8066 102.435 12.6995C102.121 13.4852 102.016 14.3423 101.993 15.1875C102.004 16.3185 102.167 17.5447 102.913 18.4494C103.414 19.1399 104.264 19.4256 105.056 19.5566C106.092 19.7114 107.117 19.2233 107.804 18.4375C108.433 17.8304 108.677 16.9494 108.805 16.0923C108.91 15.1637 108.875 14.1875 108.584 13.2947C108.34 12.4971 107.874 11.7352 107.175 11.2947C106.395 10.8066 105.428 10.6875 104.555 10.9018ZM141.122 0.77088C143.381 0.758975 145.641 0.758975 147.9 0.77088C147.9 3.80659 147.9 6.84231 147.912 9.87802C149.03 8.63993 150.497 7.67564 152.139 7.3185C153.665 6.98517 155.295 7.11612 156.762 7.65183C158.428 8.29469 159.848 9.59231 160.605 11.2352C161.607 13.1875 161.817 15.4852 161.421 17.628C161.153 19.0923 160.419 20.4614 159.371 21.4971C158.183 22.6518 156.588 23.3304 154.969 23.509C153.292 23.6637 151.533 23.3542 150.089 22.4375C149.216 21.9018 148.471 21.1756 147.83 20.3661C147.842 21.3066 147.842 22.2352 147.842 23.1637C145.594 23.1637 143.346 23.1637 141.099 23.1637C141.099 20.4495 141.099 17.7352 141.099 15.009C141.134 10.259 141.122 5.50897 141.122 0.77088ZM150.415 10.9018C149.414 11.1161 148.575 11.9018 148.226 12.878C147.947 13.6518 147.853 14.4614 147.842 15.2828C147.877 16.2233 147.981 17.1994 148.471 18.0209C148.75 18.4614 149.076 18.8899 149.554 19.1161C150.287 19.4852 151.137 19.6994 151.953 19.509C152.861 19.2947 153.606 18.6161 154.119 17.8423C154.783 16.5209 154.864 14.9495 154.503 13.5209C154.293 12.6756 153.851 11.8661 153.141 11.3661C152.349 10.8185 151.335 10.6756 150.415 10.9018ZM123.98 7.36612C125.773 7.00898 127.625 6.99707 129.442 7.09231C131.188 7.22326 132.982 7.49707 134.531 8.35421C135.299 8.79469 135.998 9.40183 136.441 10.1756C136.953 11.0566 137.139 12.0923 137.151 13.1042C137.151 16.4494 137.151 19.7947 137.151 23.1399C135.031 23.1399 132.912 23.1399 130.804 23.1399C130.804 22.378 130.804 21.6161 130.804 20.8542C129.838 22.1637 128.335 22.9375 126.786 23.2352C125.051 23.5804 123.211 23.628 121.499 23.1042C120.661 22.8304 119.834 22.4256 119.205 21.7709C118.553 21.1042 118.215 20.1756 118.169 19.2352C118.064 17.9018 118.53 16.5209 119.496 15.5804C120.707 14.4018 122.361 13.8661 123.98 13.5685C126.181 13.1875 128.428 13.1399 130.653 13.0804C130.653 12.3066 130.443 11.4852 129.872 10.9495C129.337 10.4375 128.568 10.2709 127.846 10.2828C127.229 10.2709 126.565 10.4137 126.111 10.8661C125.82 11.1637 125.633 11.5566 125.517 11.9495C123.421 11.9495 121.325 11.9495 119.217 11.9495C119.368 10.9495 119.729 9.96136 120.405 9.19945C121.325 8.16374 122.664 7.63993 123.98 7.36612ZM127.59 16.1399C126.856 16.259 126.076 16.4375 125.517 16.9733C124.876 17.5804 124.911 18.8066 125.645 19.3185C126.192 19.6875 126.868 19.7233 127.497 19.6994C128.37 19.6637 129.313 19.4375 129.907 18.7352C130.56 18.009 130.688 16.9733 130.676 16.0209C129.64 16.0209 128.615 16.0209 127.59 16.1399ZM169.899 7.35421C171.739 6.99707 173.625 6.99707 175.477 7.10421C177.166 7.23517 178.889 7.52088 180.391 8.34231C181.125 8.75897 181.789 9.34231 182.243 10.0685C182.744 10.8542 182.965 11.8066 183 12.7471C183 16.2114 183 19.6756 183 23.1399C180.892 23.1399 178.796 23.1399 176.688 23.1399C176.688 22.378 176.676 21.6042 176.688 20.8423C175.698 22.1875 174.138 22.9614 172.542 23.259C170.819 23.5804 169.014 23.628 167.325 23.0804C166.591 22.8423 165.881 22.509 165.287 21.9852C164.635 21.4137 164.204 20.5804 164.087 19.7114C163.924 18.6161 164.076 17.4495 164.646 16.4971C165.252 15.4852 166.242 14.7709 167.302 14.3066C168.897 13.6161 170.656 13.4137 172.379 13.259C173.753 13.1518 175.151 13.1161 176.537 13.0804C176.502 12.3542 176.339 11.5804 175.826 11.0328C175.302 10.4733 174.522 10.2828 173.8 10.2828C173.124 10.2709 172.402 10.4018 171.925 10.9256C171.657 11.2114 171.506 11.5804 171.389 11.9495C169.293 11.9495 167.185 11.9495 165.089 11.9495C165.229 10.9733 165.578 10.009 166.23 9.25898C167.15 8.16374 168.548 7.63993 169.899 7.35421ZM173.427 16.1518C172.729 16.259 171.983 16.4375 171.436 16.9256C170.749 17.5209 170.76 18.8066 171.529 19.3185C172.111 19.7114 172.857 19.7352 173.532 19.6994C174.371 19.6399 175.244 19.378 175.803 18.7114C176.42 17.9733 176.572 16.9614 176.525 16.0209C175.5 16.0209 174.464 16.0328 173.427 16.1518ZM84.0002 7.61612C86.306 7.61612 88.6119 7.61612 90.9177 7.61612C90.9177 12.7947 90.9177 17.9852 90.9177 23.1637C88.6119 23.1637 86.306 23.1637 84.0002 23.1637C84.0002 17.9852 84.0002 12.7947 84.0002 7.61612Z" fill="#F79C9C"/>
</svg>
