<svg width="150" height="36" viewBox="0 0 150 36" fill="none" xmlns="http://www.w3.org/2000/svg">
<path d="M38.4708 26.7702V3.02228H52.5014V6.04749H41.3373V13.308H51.2945V16.3332H41.3373V23.745H53.2557V26.7702H38.4708ZM68.0406 26.7702L63.2129 20.4172L58.3852 26.7702H54.9152L61.5533 18.2996L54.6135 9.52648H58.3852L63.062 16.0307L67.8897 9.52648H71.6614L65.0233 18.2996L71.2088 26.7702H68.0406ZM76.0365 24.1988V35.9971H73.17V18.4509C73.17 13.913 76.64 9.22396 81.9203 9.22396C87.3514 9.22396 91.274 12.703 91.274 18.2996C91.274 23.745 87.2006 27.5265 82.5237 27.5265C80.2607 27.5265 77.2434 26.4677 76.0365 24.1988ZM88.2566 18.1483C88.2566 14.3668 85.8428 12.0979 81.3168 12.2492C79.2047 12.2492 75.8856 13.913 76.1874 19.3584C76.1874 21.1735 78.1486 24.5013 82.0711 24.5013C85.6919 24.5013 88.2566 22.5349 88.2566 18.1483ZM93.8387 26.7702V9.52648H96.7051V11.3416C98.0629 9.829 100.326 9.22396 102.589 9.22396V12.4004C102.287 12.4004 98.8173 11.9466 96.7051 16.4845V26.9214L93.8387 26.7702ZM103.494 18.1483C103.494 13.1567 107.115 9.0727 111.943 9.0727C117.977 9.0727 120.24 13.1567 120.24 18.2996V19.6609H106.662C106.964 22.9887 109.83 24.6525 112.395 24.5013C114.356 24.5013 115.714 23.8962 117.072 22.3836L119.033 24.35C117.223 26.0139 114.96 27.224 112.244 27.224C107.115 27.3752 103.494 23.5937 103.494 18.1483ZM111.641 12.0979C108.925 12.0979 106.813 14.5181 106.662 17.0895H117.223C117.223 14.5181 115.413 12.0979 111.641 12.0979ZM121.749 24.35L123.861 22.3836C123.71 22.3836 124.917 23.4424 125.068 23.5937C125.521 24.0475 126.124 24.35 126.727 24.5013C128.538 24.9551 131.857 24.8038 132.159 22.2324C132.31 20.871 131.253 19.9635 130.047 19.5097C128.538 18.9046 126.727 18.7534 125.219 17.9971C123.408 17.2408 122.352 15.8794 122.352 13.913C122.352 8.77018 129.745 7.86262 133.064 10.2828L134.723 11.9467L132.611 13.6105C131.555 12.4004 130.499 11.6441 128.236 11.6441C127.18 11.6441 125.521 12.0979 125.219 13.308C124.766 14.9719 126.727 15.7282 127.934 16.0307C129.594 16.4845 131.555 16.787 132.913 17.6945C135.025 18.9046 135.478 21.7786 134.723 23.8962C133.818 26.3164 131.253 27.224 128.99 27.224C126.275 27.3752 124.012 26.4677 122.051 24.6525C122.051 24.8038 121.749 24.35 121.749 24.35ZM136.685 24.35L138.797 22.3836C138.646 22.3836 139.853 23.4424 140.004 23.5937C140.456 24.0475 141.06 24.35 141.663 24.5013C143.474 24.9551 146.793 24.8038 147.094 22.2324C147.245 20.871 146.189 19.9635 144.982 19.5097C143.474 18.9046 141.663 18.7534 140.155 17.9971C138.344 17.2408 137.288 15.8794 137.288 13.913C137.288 8.77018 144.681 7.86262 148 10.2828L149.659 11.9467L147.547 13.6105C146.491 12.4004 145.435 11.6441 143.172 11.6441C142.116 11.6441 140.456 12.0979 140.155 13.308C139.702 14.9719 141.663 15.7282 142.87 16.0307C144.53 16.4845 146.491 16.787 147.849 17.6945C149.961 18.9046 150.413 21.7786 149.659 23.8962C148.754 26.3164 146.189 27.224 143.926 27.224C141.211 27.3752 138.948 26.4677 136.986 24.6525C136.986 24.8038 136.685 24.35 136.685 24.35ZM18.7074 26.7702L16.5953 21.1735H5.12945L3.01732 26.7702H0L9.20283 3.02228H12.5219L21.7247 26.7702H18.7074ZM10.7115 6.35001L6.48724 18.1483H15.5392L10.7115 6.35001ZM23.5351 26.7702V3.02228H26.5524V26.7702H23.5351ZM31.0784 26.7702V9.98026H34.0957V26.7702H31.0784ZM36.8113 4.53489V4.23236C34.5483 4.23236 32.7379 2.26598 32.5871 -0.00292969H32.1345C32.1345 2.26598 30.1732 4.0811 27.9102 4.23236V4.53489C30.1732 4.53489 31.9836 6.50127 32.1345 8.77018H32.5871C32.7379 6.35001 34.5483 4.53489 36.8113 4.53489Z" fill="#F79C9C"/>
</svg>
