<svg width="123" height="36" viewBox="0 0 123 36" fill="none" xmlns="http://www.w3.org/2000/svg">
<path d="M76.3082 28.1425C69.1594 33.2599 58.8039 35.9971 49.8781 35.9971C37.3779 35.9971 26.1033 31.4946 17.586 24.0367C16.912 23.4417 17.5247 22.6483 18.3213 23.1045C27.5126 28.3012 38.8894 31.4153 50.6338 31.4153C58.5588 31.4153 67.2599 29.8285 75.2665 26.5161C76.492 26.0202 77.4929 27.2896 76.3082 28.1425ZM79.2903 24.85C78.3711 23.7194 73.2444 24.3144 70.9568 24.5723C70.2624 24.6516 70.1398 24.0566 70.773 23.64C74.858 20.8434 81.5575 21.6566 82.354 22.5888C83.1302 23.521 82.1498 30.0467 78.3099 33.1805C77.7175 33.6566 77.1661 33.3987 77.4112 32.764C78.269 30.6814 80.2094 25.9805 79.2903 24.85ZM71.0998 3.92434V1.20699C71.0998 0.790459 71.4266 0.512773 71.8147 0.512773H84.3353C84.7438 0.512773 85.0501 0.790459 85.0501 1.20699V3.52765C85.0501 3.92434 84.7029 4.42021 84.1106 5.23343L77.6154 14.2384C80.0256 14.1789 82.5787 14.5359 84.7438 15.726C85.234 16.0037 85.377 16.4004 85.4178 16.7772V19.6731C85.4178 20.0698 84.9685 20.526 84.4987 20.288C80.6588 18.3243 75.5321 18.1062 71.2836 20.3078C70.8547 20.5458 70.3849 20.0698 70.3849 19.6929V16.9359C70.3849 16.4995 70.3849 15.7458 70.8547 15.0715L78.3711 4.61856H71.8351C71.4266 4.61856 71.0998 4.34087 71.0998 3.92434ZM25.4497 20.8632H21.6506C21.283 20.8434 20.997 20.5657 20.9766 20.2285V1.26649C20.9766 0.889632 21.3034 0.592112 21.7119 0.592112H25.2659C25.6335 0.611946 25.9399 0.889632 25.9603 1.22682V3.70616H26.0216C26.9407 1.30616 28.6973 0.195417 31.0257 0.195417C33.4155 0.195417 34.9065 1.30616 35.9686 3.70616C36.8877 1.30616 38.9915 0.195417 41.2179 0.195417C42.811 0.195417 44.5676 0.830128 45.6297 2.27806C46.8348 3.86484 46.5897 6.1855 46.5897 8.22848V20.2086C46.5897 20.5855 46.2629 20.9029 45.8544 20.9029H42.0553C41.6672 20.883 41.3608 20.5855 41.3608 20.2086V10.1128C41.3608 9.31938 41.4425 7.31608 41.2587 6.56236C40.9728 5.29294 40.1149 4.93591 39.012 4.93591C38.0928 4.93591 37.1328 5.53095 36.7448 6.48302C36.3567 7.43509 36.3975 9.0417 36.3975 10.1128V20.169C36.3975 20.5458 36.0707 20.8632 35.6622 20.8632H31.8632C31.4751 20.8434 31.1687 20.5458 31.1687 20.169V10.1128C31.1687 7.99046 31.5364 4.87641 28.8198 4.87641C26.0829 4.87641 26.185 7.91112 26.185 10.1128V20.169C26.185 20.5657 25.8582 20.8632 25.4497 20.8632ZM95.8346 0.175583C101.492 0.175583 104.536 4.89624 104.536 10.8863C104.536 16.6781 101.166 21.2599 95.8346 21.2599C90.279 21.2599 87.2765 16.5392 87.2765 10.6681C87.2561 4.77724 90.3198 0.175583 95.8346 0.175583ZM95.855 4.04335C93.0568 4.04335 92.873 7.75244 92.873 10.0731C92.873 12.3938 92.8321 17.3524 95.8142 17.3524C98.7554 17.3524 98.8984 13.3657 98.8984 10.926C98.8984 9.31938 98.8371 7.41525 98.3265 5.88798C97.918 4.55905 97.0601 4.04335 95.855 4.04335ZM111.848 20.8632H108.049C107.661 20.8434 107.354 20.5458 107.354 20.169V1.18715C107.395 0.830128 107.702 0.572277 108.09 0.572277H111.623C111.95 0.592112 112.236 0.810293 112.297 1.10781V4.00368H112.359C113.421 1.40533 114.912 0.175583 117.546 0.175583C119.262 0.175583 120.917 0.770624 121.999 2.4169C123 3.94418 123 6.48302 123 8.32765V20.2681C122.959 20.6053 122.632 20.8632 122.265 20.8632H118.466C118.118 20.8434 117.832 20.5855 117.792 20.2681V9.95409C117.792 7.87145 118.037 4.83674 115.402 4.83674C114.483 4.83674 113.625 5.43178 113.196 6.36401C112.665 7.51443 112.583 8.68467 112.583 9.95409V20.169C112.604 20.5657 112.256 20.8632 111.848 20.8632ZM61.1323 11.7987V11.0053C58.375 11.0053 55.4746 11.5805 55.4746 14.7343C55.4746 16.321 56.3324 17.4119 57.7826 17.4119C58.8447 17.4119 59.8047 16.7772 60.4175 15.726C61.1732 14.4367 61.1323 13.2467 61.1323 11.7987ZM64.9723 20.8037C64.7272 21.0219 64.3595 21.0417 64.0736 20.883C62.8072 19.8715 62.5825 19.3954 61.8881 18.4235C59.8047 20.4863 58.3137 21.121 55.6176 21.121C52.4108 21.121 49.919 19.1971 49.919 15.369C49.919 12.3739 51.5938 10.331 53.9836 9.31938C56.0465 8.42682 58.9469 8.28798 61.1528 8.03013V7.55409C61.1528 6.68137 61.2141 5.63013 60.683 4.87641C60.2132 4.20203 59.3349 3.90451 58.5384 3.90451C57.0882 3.90451 55.8014 4.61856 55.4746 6.126C55.4133 6.46319 55.1682 6.78054 54.821 6.80038L51.124 6.42352C50.8177 6.36401 50.4704 6.10616 50.5521 5.64996C51.41 1.30616 55.4337 -0.00292969 59.0694 -0.00292969C60.9281 -0.00292969 63.3383 0.473103 64.8089 1.8417C66.6675 3.52765 66.4837 5.76897 66.4837 8.20864V13.9607C66.4837 15.6863 67.219 16.4599 67.9135 17.3921C68.1586 17.7293 68.2199 18.126 67.8931 18.3838C67.1169 18.9987 65.7484 20.169 64.9723 20.8037ZM11.2134 11.7987V11.0053C8.45599 11.0053 5.55563 11.5805 5.55563 14.7343C5.55563 16.321 6.41348 17.4119 7.86367 17.4119C8.92577 17.4119 9.88575 16.7772 10.4985 15.726C11.2542 14.4367 11.2134 13.2467 11.2134 11.7987ZM15.0533 20.8037C14.8082 21.0219 14.4406 21.0417 14.1546 20.883C12.8882 19.8715 12.6636 19.3954 11.9691 18.4235C9.88575 20.4863 8.39472 21.121 5.69861 21.121C2.49186 21.121 0 19.1971 0 15.369C0 12.3541 1.67486 10.3111 4.0646 9.31938C6.12753 8.42682 9.0279 8.28798 11.2338 8.03013V7.55409C11.2338 6.68137 11.2951 5.63013 10.764 4.87641C10.2943 4.20203 9.41597 3.90451 8.6194 3.90451C7.16921 3.90451 5.88243 4.61856 5.55563 6.126C5.49435 6.46319 5.24925 6.78054 4.90203 6.80038L1.20508 6.42352C0.898705 6.36401 0.551478 6.10616 0.633178 5.64996C1.49103 1.30616 5.5352 -0.00292969 9.15045 -0.00292969C11.0091 -0.00292969 13.4193 0.473103 14.8899 1.8417C16.7486 3.52765 16.5648 5.76897 16.5648 8.20864V13.9607C16.5648 15.6863 17.3001 16.4599 17.9945 17.3921C18.2396 17.7293 18.3009 18.126 17.9741 18.3838C17.2184 18.9987 15.8295 20.169 15.0533 20.8037Z" fill="#F79C9C"/>
</svg>
