<svg width="96" height="36" viewBox="0 0 96 36" fill="none" xmlns="http://www.w3.org/2000/svg">
<path d="M12.4243 7.85053C5.66778 7.85053 0 10.5483 0 18.6415C0 25.0562 3.77852 29.1028 12.5844 29.1028C22.9273 29.1028 23.5997 22.7181 23.5997 22.7181H18.5724C18.5724 22.7181 17.4837 26.1653 12.2642 26.1653C8.00534 26.1653 4.93129 23.4675 4.93129 19.6907H24.1121V17.3226C24.1121 13.6057 21.5824 7.85053 12.4243 7.85053ZM12.2322 10.878C16.2989 10.878 19.0527 13.2161 19.0527 16.6932H5.05937C5.05937 13.0062 8.67779 10.878 12.2322 10.878ZM24.1121 -0.00292969V25.0562C24.1121 26.465 24.016 28.4733 24.016 28.4733H28.7872C28.7872 28.4733 28.9473 27.0345 28.9473 25.7156C28.9473 25.7156 31.3169 29.1628 37.7532 29.1628C44.5097 29.1628 49.1207 24.7564 49.1207 18.4617C49.1207 12.5866 44.8939 7.8805 37.7532 7.8805C31.0607 7.8805 29.0113 11.2677 29.0113 11.2677V-0.00292969H24.1121ZM36.5364 11.0279C41.1474 11.0279 44.0614 14.2352 44.0614 18.4917C44.0614 23.0778 40.6991 26.1053 36.5684 26.1053C31.6691 26.1053 29.0113 22.5083 29.0113 18.5516C29.0113 14.8347 31.3809 11.0279 36.5364 11.0279ZM61.0007 7.85053C50.8179 7.85053 50.1454 13.0662 50.1454 13.9055H55.2048C55.2048 13.9055 55.461 10.848 60.6164 10.848C63.9787 10.848 66.5724 12.2868 66.5724 15.0445V16.0337H60.6164C52.7392 16.0337 48.5444 18.1919 48.5444 22.5683C48.5444 26.8847 52.3869 29.2227 57.6064 29.2227C64.7151 29.2227 66.9887 25.5358 66.9887 25.5358C66.9887 27.0046 67.1168 28.4434 67.1168 28.4434H71.6318C71.6318 28.4434 71.4716 26.6449 71.4716 25.5058V15.674C71.5037 9.22938 65.932 7.85053 61.0007 7.85053ZM66.6044 18.9713V20.2902C66.6044 21.9987 65.4837 26.2552 58.8552 26.2552C55.2368 26.2552 53.6678 24.5466 53.6678 22.5982C53.6678 19.0012 58.9193 18.9713 66.6044 18.9713ZM68.7819 8.65985H74.4817L82.6791 24.0071L90.8446 8.65985H96L81.1101 35.9971H75.6985L79.9893 28.3834L68.7819 8.65985Z" fill="#F79C9C"/>
</svg>
