<svg width="30" height="30" viewBox="0 0 30 30" fill="none" xmlns="http://www.w3.org/2000/svg">
<path d="M22.2811 24.5352L17.3275 19.5773C15.9621 20.4672 14.3268 20.9757 12.5645 20.8803C8.80165 20.7055 5.57865 17.7657 5.07059 14.0314C4.37201 8.70804 8.96042 4.21097 14.3268 5.11674C17.4228 5.64113 19.9948 8.05652 20.6775 11.1234C21.2015 13.4435 20.6934 15.6046 19.5661 17.3208L24.5356 22.2946C25.1548 22.9143 25.1548 23.9155 24.5356 24.5352C23.9164 25.1549 22.9003 25.1549 22.2811 24.5352ZM17.7086 12.9509C17.7086 10.3289 15.5652 8.18365 12.9455 8.18365C10.3258 8.18365 8.18245 10.3289 8.18245 12.9509C8.18245 15.5728 10.3258 17.7181 12.9455 17.7181C15.5652 17.7181 17.7086 15.5728 17.7086 12.9509Z" fill="#0A2738"/>
</svg>
