<svg width="160" height="160" viewBox="0 0 160 160" fill="none" xmlns="http://www.w3.org/2000/svg">
<rect width="160" height="160" rx="36" fill="#FACB7E"/>
<path d="M66.7198 96.8935C67.8244 96.8894 68.7198 97.7853 68.7198 98.8898C68.7198 99.0622 68.7198 99.2291 68.7198 99.3892C68.7198 100.483 67.8453 101.372 66.7519 101.378C63.9278 101.394 58.7414 101.386 55.7863 101.151C49.3983 100.638 44.3374 95.0598 44.0225 88.679C43.7076 82.2312 48.0937 76.3411 54.3693 74.9579C55.179 74.7794 55.404 74.4224 55.4714 73.7308C56.4611 63.4455 64.7161 54.6328 74.8829 52.5355C85.0047 50.4383 95.5539 54.8782 100.885 63.4455C102.077 65.3865 102.797 67.6176 103.786 69.6925C103.989 70.1387 104.394 70.6519 104.821 70.7857C110.759 72.7045 114.493 76.7204 115.708 82.6997C117.552 91.7132 111.277 100.191 102.279 101.151C99.3698 101.461 96.415 101.308 93.415 101.242C92.3107 101.218 91.4152 100.322 91.4152 99.2177C91.4152 99.0363 91.4152 98.8525 91.4152 98.6663C91.4152 97.6973 92.2013 96.9486 93.1697 96.9116C96.3862 96.8001 99.6476 97.0009 102.797 96.4877C107.813 95.6845 111.434 90.9993 111.524 85.8901C111.591 80.8033 108.06 76.0511 103.112 75.0025C100.997 74.5563 100.142 73.5746 99.5577 71.5443C97.2409 63.6017 91.8876 58.6041 83.7001 57.0869C73.6008 55.2351 64.3337 60.7459 60.9822 70.4065C60.3074 72.3698 60.1725 74.5339 59.8801 76.6312C59.6551 78.2152 58.9579 79.0853 57.3833 79.063C53.0197 79.0407 48.5436 82.722 48.6336 88.0989C48.7236 93.1188 52.6598 96.8224 57.9007 96.8893C60.8401 96.9304 63.7801 96.9045 66.7198 96.8935ZM77.8295 87.0503C77.8295 93.2623 77.8295 99.492 77.8295 105.74C77.8295 106.988 78.8331 108 80.0816 108C81.33 108 82.3505 106.988 82.3505 105.739C82.3505 99.4374 82.3505 93.1969 82.3505 86.9387C82.4405 86.8941 82.553 86.8272 82.643 86.7826C83.699 87.8743 84.7551 88.9661 85.7721 90.0191C86.6172 90.8942 88.045 90.8908 88.9269 90.0528C89.8286 89.1961 89.8125 87.7974 88.9325 86.9184C86.5422 84.5312 84.1465 82.1466 81.7207 79.777C80.6636 78.7284 79.4265 78.7507 78.3468 79.777C77.2671 80.8033 76.2325 81.8742 75.1528 82.9228C73.833 84.2165 72.5132 85.4996 71.2452 86.728C70.3209 87.6234 70.2675 89.0708 71.1626 89.9955C72.0978 90.9616 73.6779 90.9785 74.6018 90.0015C75.5765 88.9708 76.5568 87.9369 77.537 86.8941C77.627 86.961 77.717 87.0057 77.8295 87.0503Z" fill="white"/>
</svg>
