<svg width="104" height="24" viewBox="0 0 104 24" fill="none" xmlns="http://www.w3.org/2000/svg">
<path d="M60.3253 12.7487C60.3253 10.3957 59.2568 8.29947 55.6952 8.29947C53.8699 8.29947 52.4007 8.81283 51.6438 9.24064L52.2226 11.123C52.9349 10.6952 54.0925 10.3102 55.2055 10.3102C57.0308 10.3102 57.2979 11.2941 57.2979 11.9358V12.107C53.3801 12.107 50.887 13.3904 50.887 16.0856C50.887 17.7112 52.1336 19.2513 54.3596 19.2513C55.6952 19.2513 56.8527 18.738 57.5205 17.8824H57.5651C57.5651 17.8824 58.0103 19.6791 60.5034 18.9947C60.3699 18.2246 60.3253 17.4545 60.3253 16.4706V12.7487ZM57.387 15.2299C57.387 15.4011 57.387 15.615 57.2979 15.7861C57.0753 16.5134 56.274 17.1123 55.2945 17.1123C54.4931 17.1123 53.8253 16.6845 53.8253 15.7433C53.8253 14.3316 55.4726 13.9037 57.3425 13.9465M0 5.09091C0 5.09091 2.58219 15.1872 2.98288 16.8556C3.4726 18.7808 4.31849 19.4652 6.81164 18.9947L8.41438 12.7059C8.81507 11.1658 9.08219 10.0535 9.34931 8.47059H9.39384C9.57192 10.0535 9.83904 11.1658 10.1507 12.7487C10.1507 12.7487 10.8185 15.615 11.1301 17.1123C11.4418 18.6096 12.3767 19.5508 14.8253 19.0374L18.6541 5.13369H15.5822L14.2466 11.1658C13.8904 12.9198 13.5788 14.2888 13.3562 15.8717C13.1336 14.2888 12.8664 12.9626 12.5103 11.2513L11.1301 5.09091H7.92466L6.45548 11.0802C6.05479 12.9198 5.65411 14.3743 5.43151 15.9144H5.38699C5.11986 14.4599 4.80822 12.6203 4.45205 10.8663C4.45205 10.8663 3.60616 6.58824 3.29452 5.13369M27.3356 12.7487C27.3356 10.3957 26.2671 8.29947 22.7055 8.29947C20.8801 8.29947 19.411 8.81283 18.6541 9.24064L19.2329 11.123C19.9452 10.6952 21.1027 10.3102 22.2158 10.3102C24.0411 10.3102 24.3082 11.2941 24.3082 11.9358V12.107C20.3904 12.107 17.8973 13.3904 17.8973 16.0856C17.8973 17.7112 19.1884 19.2513 21.3699 19.2513C22.75 19.2513 23.863 18.738 24.5308 17.8824H24.6199C24.6199 17.8824 25.0651 19.6791 27.5582 18.9947C27.4247 18.2246 27.3801 17.4545 27.3801 16.4706V12.7487H27.3356ZM24.3973 15.2299C24.3973 15.4011 24.3973 15.615 24.3082 15.7861C24.0856 16.5134 23.2842 17.1123 22.3048 17.1123C21.5034 17.1123 20.8356 16.6845 20.8356 15.7433C20.8356 14.3316 22.4829 13.9037 24.3527 13.9465M28.9384 5.09091V18.9947H31.8767V16.0428V5.09091H28.9384ZM69.363 5.09091V15.3583C69.363 16.7701 69.6301 17.754 70.2534 18.3529C70.7877 18.8663 71.6336 19.2086 72.6575 19.2086C73.5479 19.2086 74.3938 19.0374 74.7945 18.9091L74.75 16.6845C74.4384 16.7701 74.0822 16.8128 73.637 16.8128C72.613 16.8128 72.3014 16.2139 72.3014 14.9305V10.9947H74.8836V8.34225H72.3014V5.04813M61.75 8.55615V18.9947H64.7774V13.6471C64.7774 13.3476 64.7774 13.0909 64.8219 12.877C65.0445 11.7647 65.9349 11.0374 67.226 11.0374C67.5822 11.0374 67.8493 11.0802 68.1164 11.123V8.38503C67.8938 8.34225 67.7158 8.34225 67.4486 8.34225C66.2911 8.34225 65 9.02674 64.4658 10.5668H64.3767V8.55615M33.613 8.55615V18.9947H36.5959V12.8342C36.5959 12.5348 36.6404 12.2353 36.7295 11.9786C36.9521 11.3369 37.5753 10.6524 38.5103 10.6524C39.7123 10.6524 40.2466 11.6364 40.2466 13.0053V18.9519H43.1849V12.7914C43.1849 12.5348 43.2295 12.1925 43.3185 11.9358C43.5411 11.2513 44.2089 10.6524 45.0993 10.6524C46.3014 10.6524 46.8801 11.5936 46.8801 13.262V18.9947H49.8185V12.8342C49.8185 9.58289 48.1267 8.29947 46.1678 8.29947C45.3219 8.29947 44.6541 8.51337 44.0308 8.85562C43.4966 9.15508 43.0514 9.58289 42.6507 10.139H42.6062C42.1164 9.02674 41.0479 8.25668 39.6233 8.25668C37.7979 8.25668 36.9521 9.15508 36.4623 9.92513H36.4178V8.55615M90.7329 8.08556C91.3116 8.08556 91.8014 7.7861 91.8459 7.40107L92.4247 1.1123C92.4247 0.470588 91.6678 0 90.7329 0C89.7979 0 89.0411 0.513369 89.0411 1.1123L89.6199 7.40107C89.6644 7.7861 90.1541 8.08556 90.7329 8.08556ZM87.1712 10.0107C87.4384 9.54011 87.4384 8.98396 87.1267 8.72727L81.7842 5.13369C81.2055 4.83422 80.4041 5.17647 79.9144 5.98931C79.4247 6.75936 79.5137 7.65775 80.0925 7.95722L86.0582 10.6096C86.4144 10.7807 86.9041 10.5241 87.1712 10.0107ZM94.25 10.0107C94.5616 10.4813 95.0514 10.738 95.4075 10.6096L101.373 7.95722C101.908 7.65775 101.997 6.75936 101.551 5.98931C101.062 5.21925 100.216 4.83422 99.6815 5.13369L94.2945 8.72727C93.9829 8.98396 93.9829 9.54011 94.25 10.0107ZM90.7329 15.9144C91.3116 15.9144 91.8014 16.2139 91.8459 16.5989L92.4247 22.8877C92.4247 23.5294 91.6678 24 90.7329 24C89.7979 24 89.0411 23.4866 89.0411 22.8877L89.6199 16.5989C89.6644 16.1711 90.1541 15.9144 90.7329 15.9144ZM94.25 13.9465C94.5616 13.4759 95.0514 13.2193 95.4075 13.3476L101.373 16C101.908 16.2995 101.997 17.1979 101.551 17.9679C101.062 18.738 100.216 19.123 99.6815 18.8235L94.2945 15.1872C93.9829 14.9733 93.9829 14.4171 94.25 13.9465ZM87.1712 13.9465C87.4384 14.4171 87.4384 14.9733 87.1267 15.2299L81.7842 18.8235C81.2055 19.123 80.4041 18.7808 79.9144 17.9679C79.4247 17.1979 79.5137 16.2995 80.0925 16L86.0582 13.3476C86.4144 13.1765 86.9041 13.4332 87.1712 13.9465ZM103.11 18.2674H103.199C103.288 18.2674 103.332 18.3102 103.332 18.3957C103.332 18.4813 103.377 18.5241 103.377 18.5668H103.555C103.555 18.5668 103.51 18.4813 103.51 18.3957C103.51 18.3102 103.421 18.2674 103.377 18.2246C103.466 18.2246 103.51 18.139 103.51 18.0535C103.51 17.9679 103.466 17.9251 103.466 17.8824C103.421 17.8396 103.332 17.8396 103.199 17.8396C103.065 17.8396 102.976 17.8396 102.932 17.8824V18.5668H103.11V18.2674ZM103.154 17.9679H103.243C103.332 17.9679 103.421 18.0107 103.421 18.0963C103.421 18.1818 103.332 18.1818 103.243 18.1818H103.154V17.9679ZM103.243 17.4973C102.842 17.4973 102.486 17.7968 102.486 18.1818C102.486 18.5668 102.798 18.9091 103.243 18.9091C103.688 18.9091 104 18.6096 104 18.1818C104 17.7968 103.688 17.4973 103.243 17.4973ZM103.243 17.6257C103.555 17.6257 103.822 17.8824 103.822 18.1818C103.822 18.4813 103.599 18.738 103.243 18.738C102.932 18.738 102.664 18.4813 102.664 18.1818C102.664 17.8824 102.932 17.6257 103.243 17.6257Z" fill="#F79C9C"/>
</svg>
